<svg xmlns="http://www.w3.org/2000/svg" viewBox="0 0 64 64" width="64" height="64"><rect width="64" height="64" rx="14" fill="#020617"/><g fill="none" stroke="#10B981" stroke-width="1.97" stroke-linecap="round" stroke-linejoin="round"><path d="M20.62 28.71 L32 35.29 L32 48.43 L20.62 55 L9.24 48.43 L9.24 35.29ZM9.24 35.29L20.62 41.86L32 35.29M20.62 41.86L20.62 55M43.38 28.71 L54.76 35.29 L54.76 48.43 L43.38 55 L32 48.43 L32 35.29ZM32 35.29L43.38 41.86L54.76 35.29M43.38 41.86L43.38 55M32 9 L43.38 15.57 L43.38 28.71 L32 35.29 L20.62 28.71 L20.62 15.57ZM20.62 15.57L32 22.14L43.38 15.57M32 22.14L32 35.29"/><path d="M22.33 20.89L27.45 23.85M22.33 25.36L27.45 28.32M10.94 40.61L16.07 43.57M10.94 45.08L16.07 48.03M47.93 43.57L53.06 40.61M47.93 48.03L53.06 45.08"/></g><g fill="#10B981"><circle cx="29.72" cy="25.17" r="1.18"/><circle cx="18.34" cy="44.88" r="1.18"/><circle cx="45.66" cy="44.88" r="1.18"/></g></svg>
